<?xml version="1.0" standalone="no"?>
<!DOCTYPE svg PUBLIC "-//W3C//DTD SVG 20010904//EN"
 "http://www.w3.org/TR/2001/REC-SVG-20010904/DTD/svg10.dtd">
<svg version="1.0" xmlns="http://www.w3.org/2000/svg"
 width="728.000000pt" height="728.000000pt" viewBox="0 0 728.000000 728.000000"
 preserveAspectRatio="xMidYMid meet">
<metadata>
Created by potrace 1.14, written by Peter Selinger 2001-2017
</metadata>
<g transform="translate(0.000000,728.000000) scale(0.100000,-0.100000)"
fill="#000000" stroke="none">
<path d="M3490 6854 c-19 -2 -93 -9 -165 -15 -330 -27 -694 -125 -1020 -274
-31 -14 -61 -23 -68 -19 -6 4 -9 3 -4 -1 4 -5 -47 -37 -113 -71 -274 -141
-497 -310 -765 -578 -115 -115 -214 -209 -218 -208 -5 2 -6 -1 -3 -6 3 -5 -15
-36 -40 -68 -79 -100 -234 -341 -290 -448 -107 -206 -202 -459 -267 -716 -63
-246 -85 -413 -93 -720 -7 -236 10 -485 46 -694 21 -118 99 -399 144 -521 95
-251 242 -536 369 -715 33 -47 60 -90 60 -97 0 -7 3 -10 7 -8 10 6 70 -81 62
-90 -4 -5 -2 -5 5 -2 6 4 31 -18 60 -54 71 -89 334 -346 450 -441 18 -14 29
-29 25 -33 -4 -5 -2 -5 4 -2 6 3 37 -15 70 -41 32 -26 75 -57 94 -69 19 -12
46 -32 60 -45 14 -13 31 -24 38 -26 7 -1 48 -25 92 -52 171 -107 565 -286 695
-316 17 -4 35 -10 40 -14 6 -4 24 -10 40 -13 17 -3 104 -22 195 -41 272 -57
421 -70 740 -63 267 5 352 12 530 43 272 48 566 147 833 281 48 24 93 41 99
37 6 -4 8 -3 5 3 -8 12 87 66 98 55 5 -4 5 -1 1 6 -4 6 -2 12 3 12 12 0 149
85 193 120 16 12 33 18 40 14 7 -4 10 -4 6 1 -8 9 111 102 124 98 4 -2 8 1 8
5 0 11 150 136 174 145 10 4 17 9 15 12 -3 2 57 67 133 144 76 77 138 145 138
151 0 5 5 10 10 10 6 0 13 8 17 18 3 9 14 26 25 37 23 25 86 108 118 157 13
20 29 34 34 31 5 -3 6 -1 2 5 -3 6 0 16 7 24 21 21 119 183 180 298 112 210
225 517 292 795 44 184 53 239 70 430 42 459 -8 878 -158 1335 -89 270 -168
448 -293 662 -64 108 -257 382 -297 419 -11 10 -16 23 -12 30 5 7 4 10 -3 5
-6 -3 -35 19 -64 50 -29 31 -58 62 -65 69 -7 7 -9 16 -5 20 4 4 2 5 -4 3 -5
-1 -64 45 -130 104 -129 115 -244 206 -341 270 -34 22 -60 45 -57 49 3 5 -1 7
-8 4 -7 -3 -24 5 -38 17 -14 13 -31 24 -37 25 -6 1 -27 13 -46 26 -55 37 -332
171 -452 217 -60 24 -119 46 -130 51 -139 54 -463 129 -670 155 -114 15 -520
27 -595 18z m450 -317 c91 -5 124 -13 114 -29 -4 -6 2 -6 14 1 15 8 21 7 25
-2 3 -8 21 -12 48 -12 24 1 49 -1 54 -4 6 -3 24 -6 40 -7 52 -2 56 -3 49 -16
-5 -8 0 -7 11 2 10 8 16 10 12 4 -4 -7 0 -14 8 -18 8 -3 17 -1 20 4 6 10 60 5
98 -9 14 -5 28 -7 31 -4 3 4 6 -1 6 -10 0 -10 5 -17 11 -17 5 0 7 5 3 11 -5 9
1 10 21 5 42 -11 115 -47 115 -58 0 -5 6 -5 16 0 21 12 64 3 71 -14 3 -8 9
-14 15 -14 5 0 6 4 3 10 -3 6 1 7 10 4 14 -6 14 -8 -2 -19 -15 -11 -14 -12 12
-9 16 1 35 -2 42 -7 7 -6 17 -8 23 -4 7 4 7 -1 -1 -13 -12 -19 -15 -20 -43 -5
-29 15 -30 15 -17 -1 8 -9 12 -19 9 -21 -8 -9 -48 26 -48 42 0 9 -3 13 -6 10
-4 -3 -15 -2 -26 4 -13 7 -23 7 -32 0 -7 -6 -16 -8 -20 -4 -3 4 -5 -4 -3 -18
2 -13 8 -22 13 -19 5 3 8 8 7 13 -2 4 4 7 13 7 9 0 12 5 8 12 -4 7 -3 8 4 4 6
-4 9 -13 5 -21 -3 -9 1 -15 11 -15 9 0 16 -3 16 -7 0 -10 -62 -10 -77 0 -6 4
-10 22 -8 40 3 17 1 27 -3 22 -4 -6 -15 -11 -24 -12 -40 -2 -43 -3 -28 -13 9
-5 19 -5 27 2 7 6 13 7 14 2 0 -5 2 -19 3 -31 1 -12 -1 -20 -5 -17 -4 2 -10 0
-14 -6 -4 -6 -12 -7 -24 0 -12 6 -22 5 -31 -3 -10 -9 -11 -9 -6 0 4 7 -1 12
-11 13 -10 0 -41 2 -70 3 -28 1 -55 6 -60 11 -5 5 -3 6 5 2 6 -4 12 -3 12 3 0
6 11 7 28 2 27 -7 88 7 90 22 0 4 3 13 6 20 2 6 3 -3 2 -21 -3 -33 7 -51 19
-32 4 6 11 7 17 4 7 -4 8 -2 4 5 -4 6 -12 9 -17 6 -5 -4 -9 5 -9 19 0 14 -5
28 -11 31 -22 14 -75 12 -94 -4 -18 -15 -19 -15 -6 2 10 12 10 17 2 17 -7 0
-10 3 -8 8 3 4 -1 13 -9 20 -8 7 -14 10 -14 6 0 -3 -6 -1 -13 5 -17 14 -30 2
-17 -14 8 -9 4 -11 -15 -7 -14 2 -33 -2 -42 -9 -15 -12 -16 -12 -10 3 4 11 2
15 -7 12 -7 -3 -19 3 -27 13 -12 16 -12 17 2 6 13 -10 16 -10 16 0 0 19 -28
18 -52 -2 -18 -15 -19 -15 -7 0 10 14 10 18 -3 23 -11 4 -14 2 -9 -6 4 -6 -3
-4 -16 5 -19 13 -27 14 -39 4 -12 -10 -13 -9 -6 2 6 11 4 13 -7 8 -9 -3 -21 0
-27 6 -9 9 -11 8 -5 -6 6 -17 5 -18 -14 -6 -14 9 -24 10 -34 2 -7 -6 -21 -9
-31 -8 -9 2 -15 0 -12 -4 2 -4 -2 -8 -10 -8 -8 0 -12 4 -9 8 7 12 -29 16 -54
5 -18 -7 -26 -6 -33 5 -5 8 -9 10 -10 4 0 -5 -4 -1 -9 10 -7 17 -9 17 -9 3 -1
-11 -6 -15 -16 -12 -10 4 -13 0 -10 -15 2 -12 0 -19 -6 -16 -5 4 -6 11 -3 17
4 6 1 9 -7 6 -9 -3 -13 -17 -11 -37 1 -20 -2 -30 -8 -26 -6 4 -7 11 -4 17 4 7
2 8 -4 4 -6 -4 -9 -13 -6 -20 3 -8 1 -16 -3 -19 -5 -3 -8 6 -7 21 1 15 2 27 3
27 8 0 7 36 0 41 -5 3 -8 0 -7 -8 2 -7 -3 -12 -10 -10 -9 1 -11 -2 -6 -10 12
-18 12 -48 1 -48 -5 0 -7 9 -4 20 3 11 1 23 -5 26 -5 3 -7 13 -3 21 4 12 2 13
-8 5 -10 -9 -17 -7 -29 8 -9 10 -13 22 -10 26 4 4 -1 4 -10 1 -10 -3 -20 -2
-23 2 -3 5 -14 7 -25 4 -11 -3 -17 -9 -14 -15 3 -5 13 -4 22 4 15 12 16 11 3
-5 -13 -16 -15 -16 -31 -2 -21 19 -136 30 -145 14 -5 -7 -12 -6 -23 3 -12 10
-14 10 -8 1 4 -7 2 -13 -3 -13 -6 0 -11 6 -11 13 0 8 -4 7 -10 -3 -8 -13 -10
-13 -10 -1 0 9 -11 3 -27 -15 -30 -32 -30 -32 -81 -20 -21 5 -38 4 -47 -4 -8
-6 -19 -9 -25 -5 -5 3 -10 2 -10 -4 0 -5 -11 -8 -24 -5 -17 3 -25 -1 -29 -16
-3 -11 -11 -19 -19 -18 -7 2 -13 -5 -13 -14 0 -9 -4 -20 -9 -25 -5 -4 -6 -3
-2 5 5 8 1 12 -11 12 -11 0 -25 -6 -32 -12 -8 -8 -11 -8 -8 -2 4 7 -3 14 -18
17 -26 4 -45 -8 -23 -15 7 -3 5 -7 -6 -11 -11 -5 -15 -3 -10 5 5 8 1 9 -12 4
-19 -8 -32 -11 -76 -21 -12 -2 -25 -10 -30 -17 -6 -11 -8 -11 -8 0 0 10 -4 10
-22 0 -13 -7 -26 -11 -30 -10 -5 1 -8 -3 -8 -9 0 -5 -4 -8 -9 -5 -5 4 -11 1
-13 -5 -5 -14 -107 -29 -114 -17 -3 4 -14 8 -25 8 -11 0 -17 5 -14 10 3 6 2
10 -3 10 -6 0 -12 -6 -15 -14 -3 -8 -20 -14 -39 -15 -42 -1 -58 -4 -84 -19
-12 -6 -24 -8 -28 -5 -3 3 -6 -5 -6 -18 0 -19 -2 -21 -10 -9 -7 11 -10 11 -10
2 0 -7 -5 -10 -12 -6 -7 4 -8 3 -4 -4 4 -7 2 -12 -4 -12 -6 0 -8 -4 -5 -10 4
-6 -1 -7 -11 -3 -13 5 -15 3 -9 -8 6 -11 5 -12 -5 -2 -17 16 -40 -1 -40 -28 0
-11 -5 -19 -11 -19 -5 0 -7 -6 -3 -12 5 -8 0 -7 -11 2 -20 17 -25 17 -35 0 -5
-9 -9 -9 -14 -1 -4 6 -2 11 4 11 6 0 15 12 20 26 6 14 13 23 17 21 8 -5 34 17
33 28 -1 28 2 36 18 42 9 3 26 13 36 22 14 12 17 12 11 2 -5 -8 9 -1 30 15 22
16 35 22 30 14 -6 -10 -2 -9 12 3 14 12 23 15 28 8 3 -6 12 -11 18 -11 8 0 8
3 -2 9 -18 11 1 23 26 15 14 -4 15 -4 4 4 -11 8 -10 12 8 21 12 7 26 9 32 5 6
-3 18 1 28 10 10 9 25 14 35 10 9 -4 16 -1 16 6 0 7 7 10 15 6 8 -3 15 -1 15
5 0 6 4 8 9 4 5 -3 12 -1 15 4 3 5 16 7 28 3 14 -3 19 -2 14 6 -7 11 7 16 42
15 6 -1 12 3 12 7 0 7 46 19 80 21 8 1 33 7 55 15 22 7 63 12 92 11 28 -1 51
2 50 7 -1 5 12 10 28 11 17 1 49 6 70 10 61 12 72 13 195 21 63 3 117 8 120
11 5 5 155 1 370 -10z m-397 -54 c-7 -2 -19 -2 -25 0 -7 3 -2 5 12 5 14 0 19
-2 13 -5z m47 1 c0 -8 -19 -13 -24 -6 -3 5 1 9 9 9 8 0 15 -2 15 -3z m-260
-38 c0 -2 -9 -6 -20 -9 -11 -3 -18 -1 -14 4 5 9 34 13 34 5z m586 -42 c0 -13
-2 -22 -5 -19 -3 3 -6 17 -7 31 0 13 2 22 5 19 3 -3 6 -17 7 -31z m267 21 c-3
-9 -8 -14 -10 -11 -3 3 -2 9 2 15 9 16 15 13 8 -4z m-237 -13 c7 -36 18 -52
25 -41 4 8 3 20 -4 28 -10 12 -9 12 10 1 12 -8 25 -26 29 -40 6 -23 7 -24 14
-5 5 11 9 15 9 8 1 -6 9 -10 19 -9 9 2 20 -2 24 -8 5 -7 8 -3 8 8 0 20 0 20
15 0 18 -23 19 -40 3 -27 -7 6 -32 9 -55 8 -34 -2 -43 1 -43 14 0 14 -2 14
-10 1 -8 -12 -10 -12 -10 -1 0 10 -3 11 -13 2 -8 -6 -17 -7 -21 -3 -11 10 -30
9 -39 -3 -5 -6 -7 -4 -4 5 2 8 14 14 25 14 13 -1 22 5 22 13 0 8 -4 12 -8 9
-4 -2 -8 6 -8 19 0 21 9 26 12 7z m48 2 c3 -8 2 -12 -4 -9 -6 3 -10 10 -10 16
0 14 7 11 14 -7z m-639 -22 c-3 -3 -12 -7 -21 -8 -11 -2 -12 1 -5 10 6 7 7 17
3 22 -4 4 1 2 11 -5 9 -8 15 -16 12 -19z m532 13 c0 -8 -8 -22 -17 -30 -14
-13 -17 -13 -17 -1 0 8 5 14 11 13 5 -1 11 4 12 11 4 27 11 32 11 7z m-576 -9
c-12 -14 -35 -16 -47 -3 -4 3 3 5 14 2 12 -2 24 0 27 6 4 5 9 9 12 9 3 0 0 -6
-6 -14z m99 -1 c0 -2 -6 -5 -13 -8 -8 -3 -14 1 -14 8 0 7 6 11 14 8 7 -3 13
-6 13 -8z m-180 -1 c0 -8 -19 -13 -24 -6 -3 5 1 9 9 9 8 0 15 -2 15 -3z m663
-29 c-3 -9 -8 -14 -10 -11 -3 3 -2 9 2 15 9 16 15 13 8 -4z m228 -4 c6 10 9 7
9 -10 0 -20 -2 -21 -15 -11 -8 7 -15 18 -14 24 0 6 3 5 6 -3 5 -11 7 -11 14 0z
m354 0 c3 -5 0 -13 -6 -17 -7 -4 -9 -3 -5 4 3 5 0 13 -6 15 -9 4 -10 6 -1 6 6
1 14 -3 18 -8z m-328 -23 c-3 -8 -6 -5 -6 6 -1 11 2 17 5 13 3 -3 4 -12 1 -19z
m693 -39 c0 -8 6 -7 17 2 10 9 14 9 10 2 -8 -13 26 -37 37 -26 3 3 6 -1 6 -11
0 -9 -4 -14 -10 -11 -9 5 -15 -16 -11 -38 1 -5 -3 -6 -8 -2 -7 4 -7 15 -1 30
7 20 6 25 -5 25 -8 0 -15 5 -15 11 0 5 -4 8 -9 5 -13 -8 -42 4 -35 15 7 13 24
11 24 -2z m-2288 -52 c-18 -19 -19 -26 -9 -37 10 -12 9 -12 -6 -1 -17 13 -17
15 4 38 13 12 25 23 27 23 3 0 -4 -10 -16 -23z m2388 9 c0 -3 -4 -8 -10 -11
-5 -3 -10 -1 -10 4 0 6 5 11 10 11 6 0 10 -2 10 -4z m-2332 -35 c14 11 15 11
5 -1 -8 -8 -9 -19 -3 -30 6 -12 5 -17 -5 -17 -7 0 -11 7 -8 16 3 11 0 10 -11
-3 -9 -11 -17 -15 -17 -8 -2 21 -4 27 -13 41 -6 10 -5 12 2 7 7 -4 12 -1 12 6
0 8 5 6 11 -5 9 -15 13 -16 27 -6z m2422 -32 c0 -4 -8 -13 -19 -18 -15 -9 -18
-7 -16 12 1 12 3 23 4 24 3 6 31 -10 31 -18z m-2763 -81 c-3 -8 -6 -5 -6 6 -1
11 2 17 5 13 3 -3 4 -12 1 -19z m-42 -37 c3 -5 2 -12 -3 -15 -5 -3 -9 1 -9 9
0 17 3 19 12 6z m3020 -129 c-22 -5 -50 22 -40 38 5 8 15 5 32 -12 21 -20 22
-23 8 -26z m-3329 -139 c-3 -17 -26 -32 -26 -16 0 8 20 33 26 33 1 0 1 -8 0
-17z m3639 -143 c3 -5 -1 -10 -10 -10 -9 0 -13 5 -10 10 3 6 8 10 10 10 2 0 7
-4 10 -10z"/>
<path d="M3362 6505 c4 -5 4 -13 -2 -19 -5 -7 -5 -17 1 -26 8 -12 9 -11 7 4
-2 10 3 21 11 24 10 3 11 -2 6 -19 -7 -23 -7 -24 9 -4 15 19 23 45 10 32 -4
-3 -16 -1 -28 5 -11 6 -18 7 -14 3z"/>
<path d="M3799 6483 c-8 -10 -9 -14 -2 -10 6 4 14 3 17 -2 6 -10 52 -8 63 3 6
5 -20 10 -39 7 -5 0 -8 4 -8 9 0 15 -16 12 -31 -7z"/>
<path d="M3137 6423 c3 -8 -1 -12 -8 -10 -8 2 -11 2 -6 0 4 -3 5 -8 2 -13 -6
-10 21 -7 32 3 15 15 11 36 -7 34 -10 -1 -16 -7 -13 -14z"/>
<path d="M4518 6413 c7 -3 16 -2 19 1 4 3 -2 6 -13 5 -11 0 -14 -3 -6 -6z"/>
<path d="M2630 6349 c0 -5 5 -7 10 -4 6 3 10 8 10 11 0 2 -4 4 -10 4 -5 0 -10
-5 -10 -11z"/>
<path d="M2573 6205 c0 -8 4 -12 9 -9 5 3 6 10 3 15 -9 13 -12 11 -12 -6z"/>
</g>
</svg>
